<svg width="72" height="72" viewBox="0 0 72 72" fill="none" xmlns="http://www.w3.org/2000/svg">
<path d="M35.972 71.944C55.8388 71.944 71.944 55.8388 71.944 35.972C71.944 16.1053 55.8388 0 35.972 0C16.1052 0 0 16.1053 0 35.972C0 55.8388 16.1052 71.944 35.972 71.944Z" fill="url(#paint0_linear_23_89)"/>
<path d="M18.705 41.3C21.6476 41.3 24.033 38.9146 24.033 35.972C24.033 33.0295 21.6476 30.644 18.705 30.644C15.7624 30.644 13.377 33.0295 13.377 35.972C13.377 38.9146 15.7624 41.3 18.705 41.3Z" fill="#FDFBFD"/>
<path d="M36.193 41.3C39.1356 41.3 41.521 38.9146 41.521 35.972C41.521 33.0295 39.1356 30.644 36.193 30.644C33.2504 30.644 30.865 33.0295 30.865 35.972C30.865 38.9146 33.2504 41.3 36.193 41.3Z" fill="#FDFBFD"/>
<path d="M53.681 41.3C56.6236 41.3 59.009 38.9146 59.009 35.972C59.009 33.0295 56.6236 30.644 53.681 30.644C50.7384 30.644 48.353 33.0295 48.353 35.972C48.353 38.9146 50.7384 41.3 53.681 41.3Z" fill="#FDFBFD"/>
<defs>
<linearGradient id="paint0_linear_23_89" x1="35.9718" y1="5.6858" x2="35.9718" y2="70.9902" gradientUnits="userSpaceOnUse">
<stop offset="0.0112" stop-color="#00C2FF"/>
<stop offset="1" stop-color="#0095FF"/>
</linearGradient>
</defs>
</svg>
