<svg width="70" height="72" viewBox="0 0 70 72" fill="none" xmlns="http://www.w3.org/2000/svg">
<path d="M7.12569 12.665V54.7281C7.12569 54.7281 6.71869 60.5631 11.1967 56.0851C11.1967 56.0851 17.4977 48.5401 39.2237 53.3251C57.7067 57.3961 62.8557 55.6541 67.4387 52.1511C67.4387 52.1511 69.8137 50.658 69.8137 46.649V5.52007C69.8137 5.52007 70.0847 0.726056 64.0247 3.07806C64.0247 3.07806 54.1647 8.95808 40.8677 3.53008C27.5707 -1.89792 14.4827 0.932038 10.2767 6.33404C7.03569 10.494 7.11669 11.036 7.12569 12.665Z" fill="url(#paint0_linear_23_101)"/>
<path d="M30.8227 18.5911L31.0527 9.00512C31.0527 9.00512 31.0857 7.93913 32.5557 8.10613C40.4477 9.65813 43.8407 10.9241 43.8407 10.9241C43.8407 10.9241 44.8747 11.1951 44.8697 12.4391C44.8807 14.4741 44.8697 22.5251 44.8697 22.5251C44.8697 22.5251 44.9267 23.8821 43.2307 23.6111C41.5347 23.3401 31.9007 20.4901 31.9007 20.4901C31.9007 20.4901 30.7697 20.4911 30.8227 18.5911Z" fill="url(#paint1_linear_23_101)"/>
<path d="M18.4217 22.5261V31.7071C18.4217 31.7071 18.1507 33.2901 19.8687 32.9281C21.5877 32.5661 25.2057 32.1141 29.0497 32.5211C29.0497 32.5211 30.8267 32.9731 30.8197 30.9831C30.8137 28.9931 30.8197 21.5301 30.8197 21.5301C30.8197 21.5301 31.1787 20.1331 28.7327 20.1281C24.6217 20.1201 20.9537 20.3991 19.2347 21.1231C19.2347 21.1231 18.4057 21.3051 18.4217 22.5261Z" fill="url(#paint2_linear_23_101)"/>
<path d="M55.4417 13.435C55.4417 13.435 55.0347 12.214 56.8667 12.078C58.6987 11.942 61.2767 11.807 63.7187 10.111C63.7187 10.111 65.4827 9.09296 65.2787 11.264C65.0747 13.435 65.2947 21.033 65.2947 21.033C65.2947 21.033 65.5787 22.152 63.7857 22.865C61.8187 23.647 59.9147 24.415 56.7967 24.915C56.7967 24.915 55.4317 25.647 55.4027 23.34C55.3737 21.034 55.4537 13.943 55.4417 13.435Z" fill="url(#paint3_linear_23_101)"/>
<path d="M44.8737 25.5792C44.8737 25.5792 44.3147 24.0193 46.1467 24.3583C47.9787 24.6973 50.8957 25.5792 54.4917 25.5792C54.4917 25.5792 55.3517 25.5113 55.3967 27.2073C55.4417 28.9033 55.3967 36.5022 55.3967 36.5022C55.3967 36.5022 55.5777 37.7233 53.6097 37.7913C51.6427 37.8593 46.6897 37.1802 45.8757 36.9092C45.8757 36.9092 44.6617 37.3162 44.7937 34.7382C44.9257 32.1602 44.8477 26.5062 44.8737 25.5792Z" fill="url(#paint4_linear_23_101)"/>
<path d="M55.4167 38.9443V49.3213C55.4167 49.3213 55.1027 50.4103 56.5277 50.2743C57.9527 50.1383 64.1257 48.7143 64.8727 48.0353C64.8727 48.0353 65.6867 47.6963 65.6867 46.4073C65.6867 45.1183 65.6867 37.1123 65.6867 37.1123C65.6867 37.1123 66.2297 35.0093 64.1937 35.6193C62.1587 36.2303 59.1497 37.9263 56.7987 37.7953C56.7987 37.7953 55.4167 37.9273 55.4167 38.9443Z" fill="url(#paint5_linear_23_101)"/>
<path d="M30.8387 34.1951C30.8387 34.1951 30.6107 32.5161 32.3067 32.9821C34.0027 33.4481 43.6367 36.2981 43.6367 36.2981C43.6367 36.2981 44.7777 36.1621 44.7837 38.4011C44.7897 40.6401 44.7837 47.2211 44.7837 47.2211C44.7837 47.2211 45.0617 48.7141 43.0257 48.2391C40.9897 47.7641 36.6487 46.1361 32.0347 45.2541C32.0347 45.2541 30.8267 45.3221 30.8197 43.6261C30.8137 41.9291 30.8387 34.1951 30.8387 34.1951Z" fill="url(#paint6_linear_23_101)"/>
<path d="M9.53068 38.285C9.53068 38.285 13.8707 35.09 16.5187 33.943C16.5187 33.943 18.2967 33.042 18.2217 35.324C18.1467 37.606 18.2217 44.798 18.2217 44.798C18.2217 44.798 18.4857 45.884 16.7897 46.223C15.0937 46.562 10.8197 48.869 9.93767 50.701C9.93767 50.701 9.12368 51.922 8.91968 50.701C8.71568 49.48 8.91968 39.507 8.91968 39.507C8.91968 39.507 8.71768 38.869 9.53068 38.285Z" fill="url(#paint7_linear_23_101)"/>
<mask id="mask0_23_101" style="mask-type:luminance" maskUnits="userSpaceOnUse" x="7" y="0" width="63" height="58">
<path d="M7.12569 12.665V54.7281C7.12569 54.7281 6.71869 60.5631 11.1967 56.0851C11.1967 56.0851 17.4977 48.5401 39.2237 53.3251C57.7067 57.3961 62.8557 55.6541 67.4387 52.1511C67.4387 52.1511 69.8137 50.658 69.8137 46.649V5.52007C69.8137 5.52007 70.0847 0.726056 64.0247 3.07806C64.0247 3.07806 54.1647 8.95808 40.8677 3.53008C27.5707 -1.89792 14.4827 0.932038 10.2767 6.33404C7.03569 10.494 7.11669 11.036 7.12569 12.665Z" fill="white"/>
</mask>
<g mask="url(#mask0_23_101)">
<path opacity="0.75" d="M11.1377 56.6139L7.11668 59.1689V7.79187L11.1377 4.77686V56.6139Z" fill="#A61916"/>
</g>
<path d="M0.0706814 7.87V66.396C0.0706814 66.396 -1.01432 71.883 5.31768 71.944C11.6497 72.005 10.1117 65.944 10.1117 65.944L10.2757 6.33203C10.2757 6.33203 11.0157 0 5.13768 0C-0.100317 0 -0.000318602 4.614 0.0706814 7.87Z" fill="url(#paint8_linear_23_101)"/>
<defs>
<linearGradient id="paint0_linear_23_101" x1="51.0646" y1="11.6595" x2="17.0524" y2="61.0495" gradientUnits="userSpaceOnUse">
<stop offset="0.0168" stop-color="#E84344"/>
<stop offset="0.9888" stop-color="#DB111F"/>
</linearGradient>
<linearGradient id="paint1_linear_23_101" x1="37.8473" y1="11.7229" x2="37.8473" y2="48.7058" gradientUnits="userSpaceOnUse">
<stop stop-color="#F6FBFC"/>
<stop offset="1" stop-color="#F3CFCE"/>
</linearGradient>
<linearGradient id="paint2_linear_23_101" x1="24.6224" y1="11.7229" x2="24.6224" y2="48.7058" gradientUnits="userSpaceOnUse">
<stop stop-color="#F6FBFC"/>
<stop offset="1" stop-color="#F3CFCE"/>
</linearGradient>
<linearGradient id="paint3_linear_23_101" x1="60.3539" y1="11.7228" x2="60.3539" y2="48.7057" gradientUnits="userSpaceOnUse">
<stop stop-color="#F6FBFC"/>
<stop offset="1" stop-color="#F3CFCE"/>
</linearGradient>
<linearGradient id="paint4_linear_23_101" x1="50.1" y1="11.7231" x2="50.1" y2="48.7059" gradientUnits="userSpaceOnUse">
<stop stop-color="#F6FBFC"/>
<stop offset="1" stop-color="#F3CFCE"/>
</linearGradient>
<linearGradient id="paint5_linear_23_101" x1="60.5691" y1="11.7232" x2="60.5691" y2="48.706" gradientUnits="userSpaceOnUse">
<stop stop-color="#F6FBFC"/>
<stop offset="1" stop-color="#F3CFCE"/>
</linearGradient>
<linearGradient id="paint6_linear_23_101" x1="37.8079" y1="11.7229" x2="37.8079" y2="48.7058" gradientUnits="userSpaceOnUse">
<stop stop-color="#F6FBFC"/>
<stop offset="1" stop-color="#F3CFCE"/>
</linearGradient>
<linearGradient id="paint7_linear_23_101" x1="13.5332" y1="11.7228" x2="13.5332" y2="48.7057" gradientUnits="userSpaceOnUse">
<stop stop-color="#F6FBFC"/>
<stop offset="1" stop-color="#F3CFCE"/>
</linearGradient>
<linearGradient id="paint8_linear_23_101" x1="5.15248" y1="5.2011" x2="5.15248" y2="70.6981" gradientUnits="userSpaceOnUse">
<stop stop-color="#F6FBFC"/>
<stop offset="1" stop-color="#F3CFCE"/>
</linearGradient>
</defs>
</svg>
