<svg width="685" height="704" viewBox="0 0 685 704" fill="none" xmlns="http://www.w3.org/2000/svg">
<path d="M487.278 50.667C484.062 61.3811 482.333 72.7386 482.333 84.5C482.333 149.393 534.94 202 599.833 202C624.583 202 647.544 194.346 666.483 181.278C666.665 191.85 666.668 203.158 666.666 215.14V419.526C666.67 449.076 666.67 474.537 663.93 494.927C660.99 516.777 654.366 537.723 637.376 554.71C620.389 571.7 599.443 578.324 577.593 581.264C557.203 584.004 531.743 584.003 502.194 584H400C396.214 584 392.523 585.2 389.46 587.427L242.523 694.29C210.953 717.25 166.666 694.7 166.666 655.663V584C140.868 584 114.706 584.71 89.0734 581.264C67.2231 578.324 46.2782 571.7 29.2892 554.71C12.3006 537.723 5.6761 516.777 2.73844 494.927C-0.00289403 474.537 -0.00150871 449.076 0.000157957 419.526V215.139C-0.0015087 185.59 -0.00288154 160.129 2.73844 139.74C5.67612 117.89 12.3006 96.945 29.2892 79.956C46.2782 62.9674 67.2231 56.3429 89.0734 53.4053C109.462 50.6639 134.923 50.6653 164.472 50.667H487.278ZM200 284C181.591 284 166.666 298.924 166.666 317.333C166.666 335.743 181.591 350.667 200 350.667H200.333C218.742 350.667 233.666 335.743 233.666 317.333C233.666 298.924 218.742 284 200.333 284H200ZM333.333 284C314.923 284 300 298.924 300 317.333C300 335.743 314.923 350.667 333.333 350.667H333.666C352.076 350.667 367 335.743 367 317.333C367 298.924 352.076 284 333.666 284H333.333ZM466.666 284C448.257 284 433.333 298.924 433.333 317.333C433.333 335.743 448.256 350.667 466.666 350.667H467C485.41 350.667 500.333 335.743 500.333 317.333C500.333 298.924 485.41 284 467 284H466.666Z" fill="white"/>
<circle cx="599.833" cy="84.5" r="84.5" fill="#FF3232"/>
</svg>
