<svg width="840" height="749" viewBox="0 0 840 749" fill="none" xmlns="http://www.w3.org/2000/svg">
<path d="M468.83 95.667C465.881 110.487 464.333 125.813 464.333 141.5C464.333 259.891 552.443 357.702 666.666 372.937V464.526C666.67 494.076 666.67 519.537 663.93 539.927C660.99 561.777 654.366 582.723 637.376 599.71C620.389 616.7 599.443 623.324 577.593 626.264C557.203 629.004 531.743 629.003 502.194 629H400C396.214 629 392.523 630.2 389.46 632.427L242.523 739.29C210.953 762.25 166.666 739.7 166.666 700.663V629C140.868 629 114.706 629.71 89.0734 626.264C67.2231 623.324 46.2782 616.7 29.2892 599.71C12.3006 582.723 5.6761 561.777 2.73844 539.927C-0.00289403 519.537 -0.00150871 494.076 0.000157957 464.526V260.139C-0.0015087 230.59 -0.00288154 205.129 2.73844 184.74C5.67612 162.89 12.3006 141.945 29.2892 124.956C46.2782 107.967 67.2231 101.343 89.0734 98.4053C109.462 95.6639 134.923 95.6653 164.472 95.667H468.83ZM200 329C181.591 329 166.666 343.924 166.666 362.333C166.666 380.743 181.591 395.667 200 395.667H200.333C218.742 395.667 233.666 380.743 233.666 362.333C233.666 343.924 218.742 329 200.333 329H200ZM333.333 329C314.923 329 300 343.924 300 362.333C300 380.743 314.923 395.667 333.333 395.667H333.666C352.076 395.667 367 380.743 367 362.333C367 343.924 352.076 329 333.666 329H333.333ZM466.666 329C448.257 329 433.333 343.924 433.333 362.333C433.333 380.743 448.256 395.667 466.666 395.667H467C485.41 395.667 500.333 380.743 500.333 362.333C500.333 343.924 485.41 329 467 329H466.666Z" fill="white"/>
<circle cx="697.833" cy="141.5" r="141.5" fill="#FF3232"/>
</svg>
