<svg width="800" height="800" viewBox="0 0 800 800" fill="none" xmlns="http://www.w3.org/2000/svg">
<path d="M0 650.4C0 692 14.6667 727.2 44 756C73.3333 784.8 108.8 799.467 150.4 800H650.4C691.467 800 726.667 785.333 756 756C785.333 726.667 800 691.467 800 650.4V150.4C800 108.8 785.333 73.3333 756 44C726.667 14.6667 691.467 0 650.4 0H150.4C108.8 0 73.3333 14.6667 44 44C14.6667 73.3333 0 108.8 0 150.4L0 650.4ZM100 650.4V150.4C100 136.533 104.8 124.8 114.4 115.2C124 105.6 136 100.533 150.4 100H650.4C663.733 100 675.467 105.067 685.6 115.2C695.733 125.333 700.533 137.067 700 150.4V650.4C700 664.267 695.2 676 685.6 685.6C676 695.2 664.267 700 650.4 700H150.4C136.533 700 124.533 695.2 114.4 685.6C104.267 676 99.4667 664.267 100 650.4ZM150.4 600C150.4 613.867 155.2 625.867 164.8 636C174.4 646.133 186.133 650.933 200 650.4H600C613.867 650.4 625.6 645.6 635.2 636C644.8 626.4 649.867 614.4 650.4 600V576.8C646.667 569.333 637.333 546.933 622.4 509.6C607.467 472.267 594.133 442.4 582.4 420C570.667 397.6 560 380 550.4 367.2C541.333 357.6 532 352.533 522.4 352C512.8 351.467 503.2 354.667 493.6 361.6C484 368.533 474.4 377.867 464.8 389.6C455.2 401.333 445.333 414.4 435.2 428.8C425.067 443.2 415.467 457.333 406.4 471.2C397.333 485.067 387.733 498.4 377.6 511.2C367.467 524 358.4 533.867 350.4 540.8C342.4 547.733 333.333 551.467 323.2 552C313.6 552 299.733 540 281.6 516C278.933 512.8 274.933 507.733 269.6 500.8C250.933 475.733 237.6 460.533 229.6 455.2C216.8 446.667 206.933 449.6 200 464C196.267 472.533 188.533 491.2 176.8 520C165.067 548.8 156.267 570.133 150.4 584V600ZM150.4 225.6C150.4 246.4 157.6 264 172 278.4C186.4 292.8 204 300 224.8 300C245.6 300 263.467 292.8 278.4 278.4C293.333 264 300.533 246.4 300 225.6C299.467 204.8 292.267 186.933 278.4 172C264.533 157.067 246.667 149.867 224.8 150.4C202.933 150.933 185.333 158.133 172 172C158.667 185.867 151.467 203.733 150.4 225.6Z" fill="white"/>
</svg>
