<svg width="74" height="67" viewBox="0 0 74 67" fill="none" xmlns="http://www.w3.org/2000/svg">
<path d="M54.0968 33.3643L26.1398 5.2583C26.1398 5.2583 24.6528 3.32528 21.9758 3.02728L10.8788 0.279291C10.8788 0.279291 7.00878 -1.3777 7.75178 3.3803C8.49578 8.1393 10.3768 14.7753 10.3768 14.7753C10.3768 14.7753 11.2808 17.6953 12.4588 18.7903C13.9698 20.1943 41.0248 47.8043 41.0248 47.8043L54.0968 33.3643Z" fill="url(#paint0_linear_23_126)"/>
<mask id="mask0_23_126" style="mask-type:luminance" maskUnits="userSpaceOnUse" x="50" y="43" width="24" height="23">
<path d="M58.8438 43.0134L50.5588 51.4714L57.6668 58.3474C57.6668 58.3474 56.6258 60.8754 58.1128 63.1064C59.5998 65.3374 63.6148 66.8244 66.5148 63.9984C69.4148 61.1724 72.0918 58.1984 72.0918 58.1984C72.0918 58.1984 74.8428 54.8524 71.1998 51.5064C71.1998 51.5064 69.0438 48.5324 65.8468 50.3164L58.8438 43.0134Z" fill="white"/>
</mask>
<g mask="url(#mask0_23_126)">
<path d="M58.8438 43.0134L50.8258 51.7294L57.6668 58.3464C57.6668 58.3464 56.6258 60.8744 58.1128 63.1054C59.5998 65.3364 63.6148 66.8234 66.5148 63.9974C69.4148 61.1714 72.0918 58.1974 72.0918 58.1974C72.0918 58.1974 74.8428 54.8514 71.1998 51.5054C71.1998 51.5054 69.0438 48.5314 65.8468 50.3154L58.8438 43.0134Z" fill="#F7A831"/>
</g>
<mask id="mask1_23_126" style="mask-type:luminance" maskUnits="userSpaceOnUse" x="50" y="43" width="24" height="23">
<path d="M58.8438 43.0134L50.5588 51.4714L57.6668 58.3474C57.6668 58.3474 56.6258 60.8754 58.1128 63.1064C59.5998 65.3374 63.6148 66.8244 66.5148 63.9984C69.4148 61.1724 72.0918 58.1984 72.0918 58.1984C72.0918 58.1984 74.8428 54.8524 71.1998 51.5064C71.1998 51.5064 69.0438 48.5324 65.8468 50.3164L58.8438 43.0134Z" fill="white"/>
</mask>
<g mask="url(#mask1_23_126)">
<path d="M60.0258 44.2474L51.9108 52.7764L50.7588 51.6654L58.8438 43.0134L60.0258 44.2474Z" fill="#CC7A11"/>
</g>
<path d="M64.3578 38.5692L47.4048 56.1912C47.4048 56.1912 45.1738 58.3102 41.8278 56.1912L38.9278 53.4032C38.9278 53.4032 37.0318 51.5072 38.9278 48.9422C40.8238 46.3772 55.9088 31.2932 55.9088 31.2932C55.9088 31.2932 58.5018 28.0862 61.4018 30.7072C63.6848 32.7702 64.3578 33.8862 64.3578 33.8862C64.3578 33.8862 66.7708 36.0602 64.3578 38.5692Z" fill="#FFD631"/>
<path d="M50.9368 30.1953L37.1948 43.9303L35.9848 42.6963L49.5478 28.8003L50.9368 30.1953Z" fill="#DBB48A"/>
<path d="M36.7648 15.5674L22.7368 29.6764L25.8228 32.6914L39.3288 17.9784L36.7648 15.5674Z" fill="#DBB48A"/>
<path d="M18.9908 34.2073L46.9478 6.10131C46.9478 6.10131 48.4348 4.16833 51.1118 3.87033L62.2088 1.12231C62.2088 1.12231 66.0788 -0.534678 65.3358 4.22332C64.5918 8.98232 62.7108 15.6183 62.7108 15.6183C62.7108 15.6183 61.8068 18.5383 60.6288 19.6333C59.1178 21.0373 32.0628 48.6473 32.0628 48.6473L18.9908 34.2073Z" fill="url(#paint1_linear_23_126)"/>
<mask id="mask2_23_126" style="mask-type:luminance" maskUnits="userSpaceOnUse" x="0" y="43" width="23" height="24">
<path d="M14.2438 43.8562L22.5288 52.3142L15.4208 59.1902C15.4208 59.1902 16.4618 61.7182 14.9748 63.9492C13.4878 66.1802 9.47278 67.6672 6.57278 64.8412C3.67278 62.0152 0.995783 59.0412 0.995783 59.0412C0.995783 59.0412 -1.75522 55.6952 1.88778 52.3492C1.88778 52.3492 4.04378 49.3752 7.24078 51.1592L14.2438 43.8562Z" fill="white"/>
</mask>
<g mask="url(#mask2_23_126)">
<path d="M14.2438 43.8562L22.2618 52.5722L15.4208 59.1892C15.4208 59.1892 16.4618 61.7172 14.9748 63.9482C13.4878 66.1792 9.47278 67.6662 6.57278 64.8402C3.67278 62.0142 0.995783 59.0402 0.995783 59.0402C0.995783 59.0402 -1.75522 55.6942 1.88778 52.3482C1.88778 52.3482 4.04378 49.3742 7.24078 51.1582L14.2438 43.8562Z" fill="#F7A831"/>
</g>
<mask id="mask3_23_126" style="mask-type:luminance" maskUnits="userSpaceOnUse" x="0" y="43" width="23" height="24">
<path d="M14.2438 43.8562L22.5288 52.3142L15.4208 59.1902C15.4208 59.1902 16.4618 61.7182 14.9748 63.9492C13.4878 66.1802 9.47278 67.6672 6.57278 64.8412C3.67278 62.0152 0.995783 59.0412 0.995783 59.0412C0.995783 59.0412 -1.75522 55.6952 1.88778 52.3492C1.88778 52.3492 4.04378 49.3752 7.24078 51.1592L14.2438 43.8562Z" fill="white"/>
</mask>
<g mask="url(#mask3_23_126)">
<path d="M13.1558 44.9912L21.1458 53.5602L22.2618 52.4362L14.2438 43.8562L13.1558 44.9912Z" fill="#CC7A11"/>
</g>
<path d="M8.72978 39.4122L25.6828 57.0342C25.6828 57.0342 27.9138 59.1532 31.2598 57.0342L34.1598 54.2463C34.1598 54.2463 36.0558 52.3503 34.1598 49.7853C32.2638 47.2203 17.1788 32.1362 17.1788 32.1362C17.1788 32.1362 14.5858 28.9292 11.6858 31.5502C9.40277 33.6132 8.72978 34.7293 8.72978 34.7293C8.72978 34.7293 6.31578 36.9032 8.72978 39.4122Z" fill="#FFD631"/>
<defs>
<linearGradient id="paint0_linear_23_126" x1="11.6425" y1="3.4051" x2="53.3549" y2="47.1251" gradientUnits="userSpaceOnUse">
<stop offset="0.0056" stop-color="#FDFDF8"/>
<stop offset="1" stop-color="#FFF5C7"/>
</linearGradient>
<linearGradient id="paint1_linear_23_126" x1="61.4445" y1="4.24772" x2="19.7321" y2="47.9677" gradientUnits="userSpaceOnUse">
<stop offset="0.0056" stop-color="#FDFDF8"/>
<stop offset="1" stop-color="#FFF5C7"/>
</linearGradient>
</defs>
</svg>
