<svg width="74" height="72" viewBox="0 0 74 72" fill="none" xmlns="http://www.w3.org/2000/svg">
<path d="M54.266 71.945H18.819C8.426 71.945 0 63.519 0 53.126V18.819C0 8.426 8.425 0 18.819 0H54.266C64.659 0 73.085 8.426 73.085 18.819V53.126C73.085 63.52 64.66 71.945 54.266 71.945Z" fill="url(#paint0_linear_23_153)"/>
<path d="M20.732 34.035L36.153 14.007C36.153 14.007 38.984 9.289 43.304 12.238C43.304 12.238 46.06 13.933 44.049 18.577L41.218 28.16C41.218 28.16 40.026 30.666 43.006 30.224L50.304 29.935C51.325 29.757 53.113 30.445 53.718 32.607C53.718 32.607 54.478 35.261 51.647 38.111L34.365 59.856C34.365 59.856 32.428 62.215 29.374 60.446C29.374 60.446 26.394 58.603 27.735 55.286C29.076 51.969 31.087 43.492 31.087 43.492C31.087 43.492 31.906 41.059 29.448 41.354C26.99 41.649 23.713 41.641 23.713 41.641C23.713 41.641 20.427 41.774 19.466 38.921C18.647 36.489 20.732 34.035 20.732 34.035Z" fill="#F6FBFC"/>
<defs>
<linearGradient id="paint0_linear_23_153" x1="36.5428" y1="0.8618" x2="36.5428" y2="71.7839" gradientUnits="userSpaceOnUse">
<stop offset="0.0168" stop-color="#EA4F76"/>
<stop offset="0.9888" stop-color="#E6185E"/>
</linearGradient>
</defs>
</svg>
