<svg width="65" height="72" viewBox="0 0 65 72" fill="none" xmlns="http://www.w3.org/2000/svg">
<path d="M7.22222 9.6H58.9815V63.6H7.22222V9.6Z" fill="#FFF6F6"/>
<path fill-rule="evenodd" clip-rule="evenodd" d="M32.5 72C17.1794 72 9.51903 72 4.75952 66.7278C-5.73971e-07 61.456 0 52.9704 0 36C0 19.0294 -5.73971e-07 10.5441 4.75952 5.27209C9.51903 -5.72205e-07 17.1794 0 32.5 0C47.8205 0 55.4811 -5.72205e-07 60.2406 5.27209C65 10.5441 65 19.0294 65 36C65 52.9704 65 61.456 60.2406 66.7278C55.4811 72 47.8205 72 32.5 72ZM22.5694 43.2C22.5694 41.7089 21.3569 40.5 19.8611 40.5C18.3654 40.5 17.1528 41.7089 17.1528 43.2V45.9H14.4444C12.9487 45.9 11.7361 47.1089 11.7361 48.6C11.7361 50.0911 12.9487 51.3 14.4444 51.3H17.1528V54C17.1528 55.4911 18.3654 56.7 19.8611 56.7C21.3569 56.7 22.5694 55.4911 22.5694 54V51.3H25.2778C26.7735 51.3 27.9861 50.0911 27.9861 48.6C27.9861 47.1089 26.7735 45.9 25.2778 45.9H22.5694V43.2ZM48.148 42.5999C48.148 44.257 46.8007 45.6001 45.1389 45.6001C43.4771 45.6001 42.1298 44.257 42.1298 42.5999C42.1298 40.9432 43.4771 39.6 45.1389 39.6C46.8007 39.6 48.148 40.9432 48.148 42.5999ZM48.148 54.6001C48.148 56.2568 46.8007 57.6 45.1389 57.6C43.4771 57.6 42.1298 56.2568 42.1298 54.6001C42.1298 52.943 43.4771 51.5999 45.1389 51.5999C46.8007 51.5999 48.148 52.943 48.148 54.6001ZM39.1203 51.5999C40.7824 51.5999 42.1298 50.2567 42.1298 48.6C42.1298 46.9433 40.7824 45.6001 39.1203 45.6001C37.4584 45.6001 36.1111 46.9433 36.1111 48.6C36.1111 50.2567 37.4584 51.5999 39.1203 51.5999ZM54.1667 48.6C54.1667 50.2567 52.8194 51.5999 51.1575 51.5999C49.4953 51.5999 48.148 50.2567 48.148 48.6C48.148 46.9433 49.4953 45.6001 51.1575 45.6001C52.8194 45.6001 54.1667 46.9433 54.1667 48.6ZM14.629 18.4024C14.4444 19.0891 14.4444 19.926 14.4444 21.6C14.4444 23.274 14.4444 24.1109 14.629 24.7976C15.1299 26.6611 16.5899 28.1167 18.4592 28.616C19.148 28.8 19.9875 28.8 21.6667 28.8H43.3333C45.0125 28.8 45.8521 28.8 46.5407 28.616C48.4102 28.1167 49.8702 26.6611 50.371 24.7976C50.5556 24.1109 50.5556 23.274 50.5556 21.6C50.5556 19.926 50.5556 19.0891 50.371 18.4024C49.8702 16.5389 48.4102 15.0833 46.5407 14.584C45.8521 14.4 45.0125 14.4 43.3333 14.4H21.6667C19.9875 14.4 19.148 14.4 18.4592 14.584C16.5899 15.0833 15.1299 16.5389 14.629 18.4024Z" fill="#FC9900"/>
</svg>
