<svg width="74" height="72" viewBox="0 0 74 72" fill="none" xmlns="http://www.w3.org/2000/svg">
<path d="M11.189 43.776C11.189 43.776 -1.57204 42.331 0.161964 25.398C1.50696 12.264 15.525 10.035 18.746 11.77C18.746 11.77 20.976 0.248 37.578 0C37.578 0 49.472 0.247972 53.684 11.522C53.684 11.522 66.569 7.578 72.02 21.888C72.02 21.888 78.029 37.994 61.489 43.776V59.965C61.489 59.965 61.489 70.248 50.462 71.116H21.968C21.968 71.116 12.676 71.364 11.313 61.081L11.189 43.776Z" fill="url(#paint0_linear_23_117)"/>
<path d="M22.36 48.8348C22.36 48.8348 24.59 47.4098 25.767 49.3918C26.944 51.3738 29.608 55.9578 36.422 55.8348C43.236 55.7108 45.9 49.7018 45.9 49.7018C45.9 49.7018 47.387 47.0378 49.741 48.9588C52.095 50.8788 49.741 54.0389 49.741 54.0389C49.741 54.0389 44.84 60.8528 36.574 60.9148C28.308 60.9768 22.856 55.5878 21.493 52.1178C21.493 52.1178 20.626 49.8268 22.36 48.8348Z" fill="#6842FF"/>
<defs>
<linearGradient id="paint0_linear_23_117" x1="36.5428" y1="3.6608" x2="36.5428" y2="70.6414" gradientUnits="userSpaceOnUse">
<stop offset="0.0112" stop-color="#FDFBFD"/>
<stop offset="0.9944" stop-color="#D5CEF0"/>
</linearGradient>
</defs>
</svg>
