<svg width="62" height="72" viewBox="0 0 62 72" fill="none" xmlns="http://www.w3.org/2000/svg">
<path d="M0.117445 21.8704V45.8234C0.117445 45.8234 -1.44155 57.3253 7.65945 61.2443L5.88944 63.7094C5.88944 63.7094 3.04545 67.4384 7.02745 70.8514C10.9434 74.2084 15.3694 68.7653 15.3694 68.7653L18.7194 65.2264C18.7194 65.2264 18.9724 64.5944 20.6154 64.7214H41.3454C41.3454 64.7214 42.4834 64.4054 43.4944 65.7954C44.5054 67.1854 48.6134 70.9144 48.6134 70.9144C48.6134 70.9144 51.3944 73.6323 55.2494 70.1563C55.2494 70.1563 59.7995 67.6913 54.4915 61.6873C54.4915 61.6873 53.7334 61.4344 54.6814 60.8654C54.6814 60.8654 61.1915 57.5154 61.2545 48.2884C61.3175 39.0614 61.2545 15.2984 61.2545 15.2984C61.2545 15.2984 61.2824 0.00140741 42.6735 0.00440741L17.4774 0.00135566C17.4774 0.00135566 -0.639553 -0.522591 0.0174468 19.0304L0.117445 21.8704Z" fill="url(#paint0_linear_23_94)"/>
<path d="M46.1225 39.376H15.8504C11.8844 39.376 8.66945 36.161 8.66945 32.195V23.931C8.66945 19.965 11.8844 16.75 15.8504 16.75H46.1225C50.0885 16.75 53.3035 19.965 53.3035 23.931V32.195C53.3035 36.161 50.0885 39.376 46.1225 39.376Z" fill="#0C1A12"/>
<path d="M40.6495 10.5152H21.0434C19.9734 10.5152 19.1055 9.64721 19.1055 8.57721C19.1055 7.50721 19.9734 6.63916 21.0434 6.63916H40.6495C41.7195 6.63916 42.5875 7.50721 42.5875 8.57721C42.5875 9.64721 41.7195 10.5152 40.6495 10.5152Z" fill="#0D1D14"/>
<path d="M14.2735 53.6731C16.5538 53.6731 18.4025 51.8245 18.4025 49.5441C18.4025 47.2637 16.5538 45.415 14.2735 45.415C11.9931 45.415 10.1445 47.2637 10.1445 49.5441C10.1445 51.8245 11.9931 53.6731 14.2735 53.6731Z" fill="#0D1D14"/>
<path d="M47.4744 53.6731C49.7548 53.6731 51.6034 51.8245 51.6034 49.5441C51.6034 47.2637 49.7548 45.415 47.4744 45.415C45.1941 45.415 43.3454 47.2637 43.3454 49.5441C43.3454 51.8245 45.1941 53.6731 47.4744 53.6731Z" fill="#0D1D14"/>
<defs>
<linearGradient id="paint0_linear_23_94" x1="30.6392" y1="1.83606" x2="30.6392" y2="72.8476" gradientUnits="userSpaceOnUse">
<stop offset="0.0112" stop-color="#67B437"/>
<stop offset="1" stop-color="#4CAE42"/>
</linearGradient>
</defs>
</svg>
