<svg width="59" height="72" viewBox="0 0 59 72" fill="none" xmlns="http://www.w3.org/2000/svg">
<path d="M22.6317 24.722C21.6957 21.274 18.8007 15.435 24.3667 8.14804C24.3667 8.14804 26.7517 4.21904 32.6067 1.00404C32.6067 1.00404 38.8957 -2.49695 37.5217 3.57605C37.5217 3.57605 37.2327 8.93404 38.6057 11.577C39.9787 14.22 42.5087 17.792 44.4607 18.935C46.4127 20.078 56.7487 28.008 58.1947 37.081C58.1947 37.081 61.2307 45.368 53.7127 59.013C53.7127 59.013 45.6167 71.944 29.4977 71.944C13.3787 71.944 7.16172 61.585 7.16172 61.585C7.16172 61.585 6.29472 60.513 7.73972 59.513C9.18572 58.513 14.5347 53.226 14.5347 53.226C14.5347 53.226 15.1857 52.083 16.1977 53.297C17.2097 54.511 20.4627 57.298 20.4627 57.298C20.4627 57.298 21.9087 59.155 23.5707 57.369C25.2337 55.583 33.9797 46.939 33.9797 46.939C33.9797 46.939 34.8467 45.725 35.7867 47.153C36.7267 48.582 37.6657 49.225 37.6657 49.225C37.6657 49.225 39.9787 50.725 40.3407 48.368C40.7027 46.011 42.5817 36.723 42.5817 36.723C42.5817 36.723 43.5937 33.865 40.4857 34.58C37.3777 35.294 28.3417 36.795 28.3417 36.795C28.3417 36.795 26.4627 37.367 27.8357 38.867C29.2087 40.367 30.0767 41.082 30.0767 41.082C30.0767 41.082 30.9437 41.725 29.7157 42.582C28.4877 43.439 22.6317 49.798 22.6317 49.798C22.6317 49.798 21.9087 50.441 20.9687 49.298C20.0287 48.155 16.3427 45.012 16.3427 45.012C16.3427 45.012 15.2587 43.94 13.6677 45.369C12.0777 46.798 3.76471 55.013 3.76471 55.013C3.76471 55.013 2.82472 55.942 2.10172 53.87C1.37872 51.798 -1.72929 45.654 1.30671 34.6521C1.30671 34.6521 3.47572 27.3651 11.4987 20.7211C11.4987 20.7211 15.8357 17.363 14.8957 22.007C13.9557 26.651 14.8237 29.08 17.2087 29.437C19.5937 29.794 23.4987 28.651 22.6317 24.722C21.7647 20.793 18.8007 15.435 24.3667 8.14804Z" fill="url(#paint0_linear_23_156)"/>
<defs>
<linearGradient id="paint0_linear_23_156" x1="29.4015" y1="5.44744" x2="29.4015" y2="69.7569" gradientUnits="userSpaceOnUse">
<stop offset="0.0112" stop-color="#FDD22A"/>
<stop offset="1" stop-color="#EF7C24"/>
</linearGradient>
</defs>
</svg>
