<svg width="296" height="229" viewBox="0 0 296 229" fill="none" xmlns="http://www.w3.org/2000/svg">
<path d="M250.595 19.1787C231.445 10.2191 210.97 3.70768 189.563 0C186.934 4.75311 183.863 11.1461 181.745 16.2318C158.989 12.8096 136.443 12.8096 114.105 16.2318C111.988 11.1461 108.847 4.75311 106.195 0C84.7648 3.70768 64.2657 10.243 45.1162 19.2261C6.4915 77.5931 -3.97903 134.51 1.25624 190.619C26.8742 209.75 51.7011 221.372 76.1089 228.976C82.1354 220.682 87.5102 211.866 92.1404 202.573C83.3219 199.223 74.8758 195.088 66.8951 190.287C69.0123 188.718 71.0833 187.078 73.0842 185.391C121.76 208.158 174.648 208.158 222.743 185.391C224.768 187.078 226.838 188.718 228.932 190.287C220.928 195.111 212.459 199.246 203.64 202.597C208.271 211.866 213.622 220.706 219.672 229C244.103 221.395 268.953 209.774 294.571 190.619C300.714 125.575 284.077 69.1802 250.595 19.1787ZM98.7719 156.113C84.1597 156.113 72.1766 142.472 72.1766 125.86C72.1766 109.248 83.9039 95.5833 98.7719 95.5833C113.64 95.5833 125.623 109.224 125.367 125.86C125.39 142.472 113.64 156.113 98.7719 156.113ZM197.056 156.113C182.443 156.113 170.46 142.472 170.46 125.86C170.46 109.248 182.187 95.5833 197.056 95.5833C211.924 95.5833 223.907 109.224 223.651 125.86C223.651 142.472 211.924 156.113 197.056 156.113Z" fill="white"/>
</svg>
