<svg width="302" height="309" viewBox="0 0 302 309" fill="none" xmlns="http://www.w3.org/2000/svg">
<path d="M20.4508 289.893L34.4508 224.893C16.4567 196.511 9.43714 162.539 14.7091 129.35C19.9812 96.1612 37.1824 66.0364 63.0856 44.6279C88.9888 23.2193 121.814 11.9982 155.402 13.07C188.99 14.1418 221.032 27.4327 245.518 50.4492C270.004 73.4657 285.249 104.626 288.395 138.083C291.54 171.541 282.369 204.997 262.602 232.173C242.835 259.35 213.831 278.38 181.031 285.693C148.231 293.006 113.89 288.099 84.4508 271.893L20.4508 289.893Z" fill="#25D366"/>
<path d="M54.8036 34.6072C83.1469 11.1818 119.064 -1.09586 155.816 0.0768799C192.568 1.24966 227.63 15.7926 254.422 40.9773C281.214 66.1619 297.896 100.258 301.338 136.867C304.779 173.476 294.744 210.083 273.115 239.82C251.486 269.557 219.75 290.38 183.86 298.382C149.738 305.989 114.092 301.509 82.9804 285.81L3.19913 308.25L20.6503 227.22C3.05906 197.138 -3.61446 161.837 1.87003 127.31C7.63875 90.995 26.4604 58.0324 54.8036 34.6072ZM154.987 26.0632C124.563 25.0924 94.8301 35.2563 71.3671 54.6482C47.9041 74.04 32.3232 101.327 27.5478 131.389C22.7724 161.452 29.1306 192.224 45.4296 217.932L48.2802 222.427L37.7021 271.536L86.0556 257.937L90.7196 260.505C117.386 275.184 148.492 279.629 178.202 273.005C207.912 266.381 234.184 249.143 252.089 224.526C269.993 199.91 278.3 169.606 275.451 139.301C272.602 108.995 258.793 80.7698 236.614 59.9216C214.435 39.0734 185.411 27.0341 154.987 26.0632Z" fill="white"/>
<path d="M205.451 169.893C202.451 167.893 199.451 166.893 196.451 170.893L184.451 186.893C181.451 188.893 179.451 189.893 175.451 187.893C160.451 179.893 139.451 170.893 121.451 140.893C120.451 136.893 122.451 134.893 124.451 132.893L133.451 118.893C135.451 116.893 134.451 114.893 133.451 112.893L121.451 83.893C118.451 75.893 115.451 76.893 112.451 76.893H104.451C102.451 76.893 98.4507 77.893 94.4507 81.893C72.4507 103.893 81.4507 134.893 97.4507 154.893C100.451 158.893 120.451 194.893 163.451 213.893C195.451 227.893 202.451 225.893 211.451 223.893C222.451 222.893 233.451 213.893 238.451 204.893C239.451 201.893 244.451 188.893 240.451 186.893" fill="white"/>
</svg>
